<svg width="25" height="25" viewBox="0 0 25 25" fill="none" xmlns="http://www.w3.org/2000/svg">
<path opacity="0.1" fill-rule="evenodd" clip-rule="evenodd" d="M0.225708 12.7439C0.225708 6.11648 5.59829 0.743896 12.2257 0.743896C18.8531 0.743896 24.2257 6.11648 24.2257 12.7439C24.2257 19.3713 18.8531 24.7439 12.2257 24.7439C5.59829 24.7439 0.225708 19.3713 0.225708 12.7439Z" fill="#FDFDFD"/>
<path fill-rule="evenodd" clip-rule="evenodd" d="M18.6257 12.7351C18.6257 13.1679 18.5816 13.6002 18.4951 14.0215C18.4107 14.4328 18.2857 14.8366 18.1219 15.2226C17.9619 15.6018 17.7635 15.9672 17.5316 16.308C17.3032 16.6466 17.04 16.9643 16.7509 17.2538C16.4612 17.5422 16.1425 17.8046 15.804 18.034C15.4621 18.2643 15.0962 18.4625 14.7168 18.6232C14.3302 18.7861 13.9255 18.9109 13.5145 18.9951C13.0926 19.0819 12.6588 19.1262 12.2254 19.1262C11.7916 19.1262 11.3579 19.0819 10.9366 18.9951C10.525 18.9109 10.1203 18.7861 9.73402 18.6232C9.35464 18.4625 8.98835 18.2643 8.64647 18.034C8.30801 17.8046 7.98925 17.5422 7.70017 17.2538C7.41079 16.9643 7.14764 16.6466 6.91888 16.308C6.68824 15.9672 6.48947 15.6018 6.32884 15.2226C6.16506 14.8366 6.03976 14.4328 5.95507 14.0215C5.86945 13.6002 5.82568 13.1679 5.82568 12.7351C5.82568 12.302 5.86942 11.8688 5.95509 11.4484C6.03979 11.0371 6.16509 10.6327 6.32887 10.2473C6.48949 9.86786 6.68826 9.50212 6.9189 9.16133C7.14766 8.82244 7.41081 8.50536 7.70019 8.21545C7.98927 7.92709 8.30804 7.66529 8.64649 7.43623C8.98838 7.20498 9.35466 7.00684 9.73405 6.8458C10.1203 6.68256 10.525 6.55744 10.9366 6.47382C11.3579 6.38769 11.7917 6.34399 12.2254 6.34399C12.6589 6.34399 13.0926 6.38769 13.5145 6.47382C13.9255 6.55746 14.3302 6.68259 14.7168 6.8458C15.0962 7.00682 15.4621 7.20498 15.804 7.43623C16.1425 7.66529 16.4613 7.92709 16.7509 8.21545C17.04 8.50536 17.3032 8.82244 17.5316 9.16133C17.7635 9.50212 17.9619 9.86788 18.1219 10.2473C18.2857 10.6327 18.4107 11.0371 18.4951 11.4484C18.5816 11.8688 18.6257 12.302 18.6257 12.7351ZM9.89337 7.79853C8.36922 8.51723 7.23166 9.91965 6.87695 11.6098C7.02104 11.6111 9.29865 11.6398 11.9228 10.9435C10.9769 9.26523 9.96619 7.89561 9.89337 7.79853ZM12.3757 11.784C9.56148 12.6253 6.86101 12.5647 6.76414 12.561C6.76257 12.6197 6.75976 12.6764 6.75976 12.7351C6.75976 14.1372 7.28947 15.4154 8.16014 16.3819C8.15826 16.3791 9.65399 13.7294 12.6035 12.7769C12.6747 12.7532 12.7473 12.732 12.8191 12.7114C12.682 12.4012 12.5322 12.0904 12.3757 11.784ZM15.8349 8.63893C14.8727 7.79166 13.6092 7.27772 12.2254 7.27772C11.7813 7.27772 11.3503 7.3314 10.9375 7.43063C11.0194 7.54049 12.046 8.90046 12.9807 10.6143C15.043 9.84226 15.8215 8.65889 15.8349 8.63893ZM13.1917 13.6158C13.1795 13.6198 13.1674 13.6233 13.1555 13.6276C9.93065 14.7502 8.87755 17.0126 8.86616 17.0373C9.79404 17.7578 10.9578 18.1925 12.2254 18.1925C12.9823 18.1925 13.7033 18.0386 14.3592 17.76C14.2783 17.2832 13.9608 15.6117 13.1917 13.6158ZM15.2796 17.2613C16.5068 16.4344 17.3784 15.1212 17.6216 13.6001C17.5091 13.5639 15.9799 13.0805 14.2158 13.363C14.9327 15.3303 15.224 16.9324 15.2796 17.2613ZM13.4014 11.4276C13.5283 11.6878 13.6511 11.9527 13.7645 12.2189C13.8049 12.3145 13.8442 12.4081 13.8827 12.5017C15.7603 12.2658 17.6101 12.6627 17.6891 12.6789C17.6766 11.3851 17.2132 10.1977 16.4463 9.26806C16.4359 9.28269 15.5593 10.5475 13.4014 11.4276Z" fill="white"/>
</svg>
