<svg width="25" height="25" viewBox="0 0 25 25" fill="none" xmlns="http://www.w3.org/2000/svg">
<path opacity="0.1" fill-rule="evenodd" clip-rule="evenodd" d="M0.225708 12.7439C0.225708 6.11648 5.59829 0.743896 12.2257 0.743896C18.8531 0.743896 24.2257 6.11648 24.2257 12.7439C24.2257 19.3713 18.8531 24.7439 12.2257 24.7439C5.59829 24.7439 0.225708 19.3713 0.225708 12.7439Z" fill="#FDFDFD"/>
<path fill-rule="evenodd" clip-rule="evenodd" d="M12.2263 6.34399C10.4881 6.34399 10.27 6.35159 9.58732 6.38266C8.90598 6.41386 8.44091 6.52173 8.03397 6.68C7.61304 6.84347 7.25597 7.06213 6.90023 7.41801C6.54422 7.77374 6.32556 8.13081 6.16155 8.55162C6.00289 8.95869 5.89488 9.42389 5.86422 10.105C5.83368 10.7876 5.82568 11.0059 5.82568 12.7441C5.82568 14.4822 5.83342 14.6997 5.86435 15.3824C5.89568 16.0637 6.00355 16.5288 6.16169 16.9357C6.32529 17.3566 6.54396 17.7137 6.89983 18.0694C7.25543 18.4255 7.6125 18.6447 8.03317 18.8081C8.44038 18.9664 8.90558 19.0743 9.58679 19.1055C10.2695 19.1365 10.4875 19.1441 12.2255 19.1441C13.9638 19.1441 14.1812 19.1365 14.8639 19.1055C15.5453 19.0743 16.0109 18.9664 16.4181 18.8081C16.8389 18.6447 17.1954 18.4255 17.551 18.0694C17.907 17.7137 18.1257 17.3566 18.2897 16.9358C18.447 16.5288 18.555 16.0636 18.587 15.3825C18.6177 14.6998 18.6257 14.4822 18.6257 12.7441C18.6257 11.0059 18.6177 10.7878 18.587 10.1051C18.555 9.42376 18.447 8.95869 18.2897 8.55175C18.1257 8.13081 17.907 7.77374 17.551 7.41801C17.195 7.062 16.839 6.84333 16.4177 6.68C16.0097 6.52173 15.5443 6.41386 14.863 6.38266C14.1803 6.35159 13.963 6.34399 12.2243 6.34399H12.2263ZM11.6521 7.49732C11.8225 7.49705 12.0127 7.49732 12.2263 7.49732C13.9351 7.49732 14.1376 7.50345 14.8124 7.53412C15.4364 7.56266 15.7751 7.66692 16.0007 7.75452C16.2994 7.87053 16.5123 8.00919 16.7362 8.2332C16.9602 8.4572 17.0988 8.67053 17.2151 8.9692C17.3027 9.19454 17.4071 9.53321 17.4355 10.1572C17.4662 10.8319 17.4728 11.0346 17.4728 12.7426C17.4728 14.4506 17.4662 14.6533 17.4355 15.3279C17.407 15.9519 17.3027 16.2906 17.2151 16.5159C17.0991 16.8146 16.9602 17.0273 16.7362 17.2512C16.5122 17.4752 16.2995 17.6138 16.0007 17.7298C15.7754 17.8178 15.4364 17.9218 14.8124 17.9504C14.1377 17.981 13.9351 17.9877 12.2263 17.9877C10.5173 17.9877 10.3148 17.981 9.6401 17.9504C9.01609 17.9216 8.67742 17.8173 8.45168 17.7297C8.15301 17.6137 7.93968 17.475 7.71568 17.251C7.49167 17.027 7.35301 16.8142 7.23674 16.5154C7.14914 16.2901 7.04474 15.9514 7.01634 15.3274C6.98567 14.6527 6.97953 14.4501 6.97953 12.741C6.97953 11.0319 6.98567 10.8303 7.01634 10.1556C7.04487 9.53161 7.14914 9.19294 7.23674 8.96734C7.35274 8.66867 7.49167 8.45533 7.71568 8.23133C7.93968 8.00733 8.15301 7.86866 8.45168 7.75239C8.67729 7.66439 9.01609 7.56039 9.6401 7.53172C10.2305 7.50505 10.4593 7.49705 11.6521 7.49572V7.49732ZM15.6426 8.56C15.2186 8.56 14.8746 8.90361 14.8746 9.32774C14.8746 9.75175 15.2186 10.0958 15.6426 10.0958C16.0666 10.0958 16.4106 9.75175 16.4106 9.32774C16.4106 8.90374 16.0666 8.56 15.6426 8.56ZM12.2263 9.45734C10.4112 9.45734 8.93959 10.929 8.93959 12.744C8.93959 14.5591 10.4112 16.0301 12.2263 16.0301C14.0414 16.0301 15.5125 14.5591 15.5125 12.744C15.5125 10.929 14.0414 9.45734 12.2263 9.45734ZM12.2263 10.6107C13.4044 10.6107 14.3596 11.5658 14.3596 12.744C14.3596 13.9222 13.4044 14.8774 12.2263 14.8774C11.048 14.8774 10.0929 13.9222 10.0929 12.744C10.0929 11.5658 11.048 10.6107 12.2263 10.6107Z" fill="#FDFDFD"/>
</svg>
