<svg width="25" height="25" viewBox="0 0 25 25" fill="none" xmlns="http://www.w3.org/2000/svg">
<path opacity="0.1" fill-rule="evenodd" clip-rule="evenodd" d="M0.225708 12.7439C0.225708 6.11648 5.59829 0.743896 12.2257 0.743896C18.8531 0.743896 24.2257 6.11648 24.2257 12.7439C24.2257 19.3713 18.8531 24.7439 12.2257 24.7439C5.59829 24.7439 0.225708 19.3713 0.225708 12.7439Z" fill="white"/>
<path fill-rule="evenodd" clip-rule="evenodd" d="M11.8663 10.4976L11.8915 10.9128L11.4718 10.862C9.94414 10.6671 8.60953 10.0061 7.47638 8.89601L6.92239 8.3452L6.7797 8.75195C6.47752 9.65867 6.67058 10.6162 7.30011 11.2603C7.63586 11.6162 7.56031 11.667 6.98115 11.4552C6.7797 11.3874 6.60343 11.3365 6.58664 11.3619C6.52788 11.4213 6.72933 12.1924 6.88881 12.4975C7.10705 12.9212 7.55192 13.3364 8.03876 13.5821L8.45005 13.777L7.96321 13.7855C7.49316 13.7855 7.47638 13.794 7.52674 13.9719C7.69461 14.5228 8.35772 15.1075 9.09637 15.3617L9.61678 15.5396L9.16352 15.8108C8.49202 16.2006 7.70301 16.4209 6.914 16.4379C6.53628 16.4464 6.22571 16.4803 6.22571 16.5057C6.22571 16.5904 7.24975 17.065 7.8457 17.2514C9.63357 17.8022 11.7572 17.5649 13.352 16.6243C14.4852 15.9549 15.6183 14.6244 16.1471 13.3364C16.4325 12.65 16.7179 11.3958 16.7179 10.7942C16.7179 10.4044 16.7431 10.3535 17.2131 9.88747C17.4901 9.6163 17.7503 9.31971 17.8007 9.23497C17.8846 9.07396 17.8762 9.07396 17.4482 9.21802C16.7347 9.47224 16.634 9.43835 16.9865 9.05701C17.2467 8.78585 17.5573 8.29435 17.5573 8.15029C17.5573 8.12487 17.4314 8.16724 17.2887 8.24351C17.1376 8.32825 16.8018 8.45536 16.55 8.53162L16.0968 8.67568L15.6855 8.39604C15.4588 8.24351 15.1399 8.07403 14.972 8.02318C14.5439 7.90455 13.8892 7.9215 13.5031 8.05708C12.4539 8.43841 11.7908 9.4214 11.8663 10.4976Z" fill="white"/>
</svg>
