<svg width="25" height="25" viewBox="0 0 25 25" fill="none" xmlns="http://www.w3.org/2000/svg">
<path opacity="0.1" fill-rule="evenodd" clip-rule="evenodd" d="M0.225708 12.7439C0.225708 6.11648 5.59829 0.743896 12.2257 0.743896C18.8531 0.743896 24.2257 6.11648 24.2257 12.7439C24.2257 19.3713 18.8531 24.7439 12.2257 24.7439C5.59829 24.7439 0.225708 19.3713 0.225708 12.7439Z" fill="#FDFDFD"/>
<path fill-rule="evenodd" clip-rule="evenodd" d="M17.2265 8.61866C17.7773 8.76979 18.211 9.2151 18.3582 9.7806C18.6257 10.8055 18.6257 12.944 18.6257 12.944C18.6257 12.944 18.6257 15.0824 18.3582 16.1074C18.211 16.6729 17.7773 17.1182 17.2265 17.2694C16.2284 17.544 12.2257 17.544 12.2257 17.544C12.2257 17.544 8.22302 17.544 7.22484 17.2694C6.67408 17.1182 6.24033 16.6729 6.09313 16.1074C5.82571 15.0824 5.82571 12.944 5.82571 12.944C5.82571 12.944 5.82571 10.8055 6.09313 9.7806C6.24033 9.2151 6.67408 8.76979 7.22484 8.61866C8.22302 8.34399 12.2257 8.34399 12.2257 8.34399C12.2257 8.34399 16.2284 8.34399 17.2265 8.61866ZM11.0257 11.144V15.144L14.2257 13.144L11.0257 11.144Z" fill="#FDFDFD"/>
</svg>
