<svg width="62" height="47" viewBox="0 0 62 47" fill="none" xmlns="http://www.w3.org/2000/svg">
<path d="M61.0923 0.35083L61.0923 14.1577C61.0923 18.0781 60.3253 22.0838 58.7912 26.1747C57.2571 30.2656 55.233 34.1221 52.7187 37.7443C50.2045 41.3665 47.4773 44.392 44.5369 46.821L32.5199 39.7258C34.9062 35.9758 36.8665 32.0554 38.4006 27.9645C39.892 23.8736 40.6378 19.3139 40.6378 14.2855L40.6378 0.35083L61.0923 0.35083ZM28.8125 0.35083L28.8125 14.1577C28.8125 18.0781 28.0455 22.0838 26.5114 26.1747C24.9773 30.2656 22.9531 34.1221 20.4389 37.7443C17.9247 41.3665 15.1974 44.392 12.2571 46.821L0.240054 39.7258C2.62642 35.9758 4.58665 32.0554 6.12074 27.9645C7.61221 23.8736 8.35795 19.3139 8.35795 14.2855L8.35795 0.35083L28.8125 0.35083Z" fill="#4A4DC7"/>
</svg>
